<svg width="26" height="25" viewBox="0 0 26 25" fill="none" xmlns="http://www.w3.org/2000/svg">
<path d="M22.336 7.61601C21.4116 7.61601 20.6244 7.29201 19.9747 6.64401C19.3249 5.99601 19 5.20935 19 4.28401C19 3.35868 19.324 2.57201 19.972 1.92401C20.62 1.27601 21.4062 0.951126 22.3307 0.949348C23.2551 0.94757 24.0422 1.27113 24.692 1.92001C25.3418 2.5689 25.6667 3.35557 25.6667 4.28001C25.6667 5.20446 25.3431 5.99113 24.696 6.64001C24.0489 7.2889 23.2622 7.61424 22.336 7.61601ZM5.10267 21.6667L2.83067 23.9387C2.49378 24.2756 2.10444 24.3516 1.66267 24.1667C1.22089 23.9818 1 23.652 1 23.1773V5.15468C1 4.54046 1.20578 4.02801 1.61733 3.61735C2.02889 3.20668 2.54089 3.0009 3.15333 3.00001H16.4667C16.4124 3.22224 16.3809 3.44001 16.372 3.65335C16.3631 3.86668 16.3604 4.09335 16.364 4.33335C16.3898 4.98135 16.4942 5.58313 16.6773 6.13868C16.8604 6.69424 17.1049 7.20357 17.4107 7.66668H6.33333C6.144 7.66668 5.98578 7.73068 5.85867 7.85868C5.73156 7.98668 5.66756 8.14535 5.66667 8.33468C5.66578 8.52401 5.72978 8.68224 5.85867 8.80935C5.98756 8.93646 6.14578 9.00001 6.33333 9.00001H18.9227C19.3627 9.41068 19.8787 9.72713 20.4707 9.94935C21.0627 10.1716 21.6836 10.2827 22.3333 10.2827C22.7884 10.2827 23.2449 10.2271 23.7027 10.116C24.1604 10.0049 24.5929 9.83824 25 9.61601V19.5253C25 20.1307 24.7947 20.6391 24.384 21.0507C23.9733 21.4622 23.4609 21.6676 22.8467 21.6667H5.10267ZM6.33333 13H19.6667C19.856 13 20.0142 12.936 20.1413 12.808C20.2684 12.68 20.3324 12.5213 20.3333 12.332C20.3342 12.1427 20.2702 11.9845 20.1413 11.8573C20.0124 11.7302 19.8542 11.6667 19.6667 11.6667H6.33333C6.144 11.6667 5.98578 11.7307 5.85867 11.8587C5.73156 11.9867 5.66756 12.1453 5.66667 12.3347C5.66578 12.524 5.72978 12.6822 5.85867 12.8093C5.98756 12.9365 6.14578 13 6.33333 13ZM6.33333 17H14.3333C14.5227 17 14.6809 16.936 14.808 16.808C14.9351 16.68 14.9991 16.5213 15 16.332C15.0009 16.1427 14.9369 15.9845 14.808 15.8573C14.6791 15.7302 14.5209 15.6667 14.3333 15.6667H6.33333C6.144 15.6667 5.98578 15.7307 5.85867 15.8587C5.73156 15.9867 5.66756 16.1453 5.66667 16.3347C5.66578 16.524 5.72978 16.6822 5.85867 16.8093C5.98756 16.9365 6.14578 17 6.33333 17Z" fill="white"/>
</svg>
